<?xml version="1.0" standalone="no"?>
<!DOCTYPE svg PUBLIC "-//W3C//DTD SVG 20010904//EN"
 "http://www.w3.org/TR/2001/REC-SVG-20010904/DTD/svg10.dtd">
<svg version="1.0" xmlns="http://www.w3.org/2000/svg"
 width="612.000000pt" height="82.000000pt" viewBox="0 0 612.000000 82.000000"
 preserveAspectRatio="xMidYMid meet">

<g transform="translate(0.000000,82.000000) scale(0.100000,-0.100000)"
fill="#000000" stroke="none">
<path d="M1644 805 c-140 -30 -238 -114 -275 -236 -18 -58 -20 -89 -18 -187 4
-109 6 -122 37 -184 39 -79 92 -128 171 -160 47 -19 76 -22 186 -23 78 0 151
5 183 13 l52 14 0 41 c0 23 -3 59 -6 79 l-7 38 -123 -1 c-141 -1 -173 10 -208
71 -39 66 -32 295 11 342 14 16 34 18 159 18 162 0 148 -8 159 97 8 70 13 65
-95 83 -84 13 -150 12 -226 -5z"/>
<path d="M170 506 c0 -227 -3 -307 -12 -312 -7 -4 -42 -10 -78 -13 l-65 -6 -8
-69 c-6 -48 -5 -72 3 -80 7 -7 58 -11 143 -11 120 0 135 2 169 23 22 14 46 41
60 70 22 46 23 55 26 375 l3 327 -120 0 -121 0 0 -304z"/>
<path d="M737 803 c-7 -12 -247 -764 -247 -774 0 -6 51 -8 122 -7 l121 3 21
80 21 80 115 0 115 0 21 -80 21 -80 125 -3 126 -3 -44 143 c-24 79 -79 257
-121 396 l-76 252 -158 0 c-87 0 -160 -3 -162 -7z m163 -178 c0 -2 16 -63 35
-134 19 -71 35 -132 35 -135 0 -3 -36 -6 -80 -6 -44 0 -80 3 -80 6 0 22 75
274 82 274 4 0 8 -2 8 -5z"/>
<path d="M2305 804 c-103 -21 -127 -28 -150 -46 -75 -58 -102 -206 -56 -301
31 -64 81 -99 197 -137 113 -38 150 -65 141 -102 -4 -15 -16 -28 -29 -31 -21
-6 -190 6 -270 19 -34 5 -39 3 -47 -19 -6 -14 -13 -52 -17 -85 l-6 -60 28 -6
c71 -15 176 -26 249 -26 212 0 325 82 325 237 0 137 -53 194 -235 253 -121 39
-147 60 -125 101 10 17 23 19 150 19 158 0 142 -10 159 98 7 44 5 54 -8 62
-39 20 -242 36 -306 24z"/>
<path d="M2797 804 c-4 -4 -7 -182 -7 -396 l0 -389 123 3 122 3 5 190 5 190
26 -45 c15 -25 61 -111 103 -192 l77 -148 258 0 257 0 20 82 20 83 116 3 c128
3 117 8 133 -63 3 -16 11 -47 16 -67 l10 -38 125 0 c97 0 125 3 121 13 -2 6
-52 170 -111 362 -59 193 -112 365 -117 383 l-11 32 -158 0 -159 0 -85 -262
c-46 -145 -101 -317 -122 -383 -20 -66 -41 -124 -45 -128 -4 -5 -48 65 -99
155 -51 89 -105 180 -121 200 l-30 37 32 43 c33 46 199 323 199 333 0 3 -57 4
-127 3 l-128 -3 -80 -145 c-44 -80 -89 -159 -100 -175 l-20 -30 -5 175 -5 175
-116 3 c-63 1 -118 -1 -122 -4z m1171 -310 c18 -67 32 -127 32 -133 0 -7 -27
-11 -81 -11 -72 0 -80 2 -75 18 3 9 19 69 37 132 17 63 33 119 36 123 10 17
20 -9 51 -129z"/>
<path d="M4797 803 c-6 -11 -247 -768 -247 -776 0 -4 55 -7 123 -7 l123 0 19
83 20 82 117 3 116 3 19 -83 19 -83 126 -3 127 -3 -8 28 c-48 162 -225 732
-232 746 -9 15 -27 17 -164 17 -84 0 -156 -3 -158 -7z m172 -210 c6 -21 22
-81 36 -133 14 -52 25 -98 25 -102 0 -5 -37 -8 -81 -8 -73 0 -81 2 -77 18 54
197 74 262 80 262 4 0 12 -17 17 -37z"/>
<path d="M5437 803 c-4 -3 -7 -182 -7 -396 l0 -389 263 5 c281 5 321 11 362
55 55 59 71 182 35 258 -23 47 -55 72 -114 89 l-39 12 49 24 c70 34 94 75 94
159 0 112 -53 163 -187 181 -80 10 -447 12 -456 2z m387 -164 c21 -16 26 -29
26 -63 0 -23 -7 -52 -16 -64 -13 -19 -24 -22 -85 -22 l-69 0 0 85 0 85 59 0
c44 0 65 -5 85 -21z m26 -296 c24 -31 33 -85 20 -132 -12 -46 -35 -55 -130
-49 l-55 3 -3 104 -3 103 77 -4 c64 -3 79 -7 94 -25z"/>
</g>
</svg>
