<?xml version="1.0" standalone="no"?>
<!DOCTYPE svg PUBLIC "-//W3C//DTD SVG 20010904//EN"
 "http://www.w3.org/TR/2001/REC-SVG-20010904/DTD/svg10.dtd">
<svg version="1.0" xmlns="http://www.w3.org/2000/svg"
 width="118.000000pt" height="26.000000pt" viewBox="0 0 118.000000 26.000000"
 preserveAspectRatio="xMidYMid meet">

<g transform="translate(0.000000,26.000000) scale(0.100000,-0.100000)"
fill="#000000" stroke="none">
<path d="M70 155 c0 -63 -4 -105 -10 -105 -5 0 -10 16 -10 35 0 31 -3 35 -25
35 -22 0 -25 -4 -25 -40 0 -67 49 -99 98 -64 21 14 22 23 22 130 l0 114 -25 0
-25 0 0 -105z"/>
<path d="M560 130 l0 -130 25 0 c23 0 25 3 26 53 l1 52 17 -52 c14 -47 19 -53
43 -53 l27 0 -21 62 c-20 58 -20 64 -5 110 l16 49 -26 -3 c-20 -2 -30 -12 -39
-38 l-12 -35 -1 58 c-1 54 -2 57 -26 57 l-25 0 0 -130z"/>
<path d="M926 178 c-4 -46 -10 -104 -13 -130 -5 -47 -5 -48 21 -48 19 0 26 5
26 20 0 11 7 20 15 20 8 0 15 -9 15 -20 0 -15 7 -20 26 -20 26 0 26 1 21 48
-3 26 -9 84 -13 130 l-7 82 -42 0 -42 0 -7 -82z m57 -35 c4 -52 2 -63 -10 -63
-12 0 -14 7 -9 31 3 17 6 47 6 67 0 53 7 35 13 -35z"/>
<path d="M1060 130 l0 -130 38 0 c21 0 46 6 55 13 26 18 33 81 13 112 -9 14
-12 25 -6 25 5 0 10 20 10 45 0 51 -16 65 -74 65 l-36 0 0 -130z m65 60 c0
-13 -6 -25 -12 -27 -9 -3 -13 6 -13 27 0 21 4 30 13 28 6 -3 12 -15 12 -28z
m5 -105 c0 -24 -5 -35 -15 -35 -10 0 -15 11 -15 35 0 24 5 35 15 35 10 0 15
-11 15 -35z"/>
<path d="M156 204 c-24 -23 -20 -44 9 -44 14 0 25 5 25 10 0 6 5 10 10 10 23
0 9 -41 -17 -51 -35 -13 -43 -26 -43 -70 0 -46 23 -68 51 -51 11 7 19 8 19 2
0 -5 11 -10 25 -10 25 0 25 0 25 94 0 105 -10 126 -60 126 -16 0 -36 -7 -44
-16z m54 -129 c0 -19 -4 -35 -10 -35 -5 0 -10 16 -10 35 0 19 5 35 10 35 6 0
10 -16 10 -35z"/>
<path d="M296 198 c-25 -35 -22 -152 4 -178 39 -39 95 -19 106 38 6 29 4 32
-19 32 -19 0 -26 -6 -29 -22 -2 -12 -9 -23 -15 -26 -10 -3 -13 15 -13 68 0 53
3 71 13 68 6 -3 13 -14 15 -26 5 -32 52 -31 52 1 0 39 -27 67 -65 67 -24 0
-39 -7 -49 -22z"/>
<path d="M437 202 c-26 -29 -21 -51 23 -99 23 -24 38 -48 35 -53 -10 -17 -25
-11 -25 10 0 15 -7 20 -25 20 -31 0 -34 -31 -5 -60 35 -35 93 -21 104 25 8 31
-7 62 -48 97 -17 14 -27 30 -23 34 4 5 12 3 16 -5 5 -7 20 -11 34 -9 25 3 26
5 14 28 -16 33 -75 40 -100 12z"/>
<path d="M722 208 c-19 -19 -15 -48 7 -48 11 0 21 5 23 12 5 14 28 2 28 -16 0
-7 -15 -19 -32 -27 -20 -8 -37 -25 -42 -41 -20 -58 29 -115 61 -72 12 16 13
16 13 1 0 -11 8 -17 25 -17 25 0 25 1 25 88 0 104 -13 132 -64 132 -17 0 -37
-5 -44 -12z m54 -154 c-3 -8 -10 -14 -16 -14 -14 0 -13 53 3 69 10 10 13 7 15
-14 2 -15 1 -33 -2 -41z"/>
</g>
</svg>
